<?xml version="1.0" encoding="UTF-8"?>
<svg version="1.1" xmlns="http://www.w3.org/2000/svg" width="512" height="512">
<path d="M0 0 C0.76989258 0.19867676 1.53978516 0.39735352 2.33300781 0.60205078 C29.58532475 7.74414798 53.20764058 20.98110653 74 40 C77.70268468 38.4094101 80.35557345 36.08053228 83.375 33.4375 C89.83757702 27.91196642 96.76919549 23.44509623 104 19 C104.80566406 18.46761719 105.61132812 17.93523438 106.44140625 17.38671875 C117.82620784 10.04104676 130.92769994 5.37367722 143.875 1.625 C145.10246948 1.26728516 145.10246948 1.26728516 146.35473633 0.90234375 C158.56577288 -2.46588238 170.64836174 -3.37977973 183.25 -3.3125 C183.97810883 -3.31034485 184.70621765 -3.3081897 185.45639038 -3.30596924 C196.24689538 -3.25473888 206.52922707 -2.82588998 217 0 C217.78052734 0.19867676 218.56105469 0.39735352 219.36523438 0.60205078 C231.37076763 3.70092683 242.17180321 7.99234932 253 14 C254.05574219 14.56589844 255.11148437 15.13179687 256.19921875 15.71484375 C270.51803777 23.66974321 283.54300374 34.41077457 294 47 C294.68707031 47.78761719 295.37414062 48.57523438 296.08203125 49.38671875 C325.68070661 84.06537692 334.12656511 128.23109511 330.71582031 172.70556641 C326.02093263 215.82175345 305.17177287 256.98220126 279 291 C278.2874707 291.9288501 278.2874707 291.9288501 277.56054688 292.87646484 C274.42023576 296.95612205 271.2209912 300.9838266 268 305 C267.34 305.86367188 266.68 306.72734375 266 307.6171875 C263.12640539 311.22200931 261.79423242 312.77496748 257.25 314.0625 C254 314 254 314 251 313 C248.10907159 315.84664723 245.36604088 318.69728848 243 322 C242.97912862 325.21406972 242.97912862 325.21406972 244 328 C242.76019212 333.01089018 239.47074243 335.91387649 235.875 339.375 C235.28388428 339.9537085 234.69276855 340.53241699 234.08374023 341.12866211 C229.85138086 345.24627314 225.51313465 349.19229314 221 353 C219.96380366 353.89854156 218.92875299 354.79840513 217.89453125 355.69921875 C192.20291029 378.01744982 164.29790878 398.47557457 135.01416016 415.8046875 C133.09943449 416.94099015 131.19462251 418.0919841 129.29296875 419.25 C82.94514284 447.42441815 82.94514284 447.42441815 71 446 C62.47983114 443.63488115 54.89763401 439.46426887 47.25 435.125 C46.06812158 434.46053729 44.88615384 433.79623345 43.70410156 433.13208008 C27.06271723 423.74223689 10.75977367 413.80755799 -5 403 C-6.32542034 402.09750864 -7.65094457 401.19516985 -8.9765625 400.29296875 C-22.66538721 390.95245532 -36.07867649 381.38257577 -49 371 C-49.93457031 370.24976563 -50.86914062 369.49953125 -51.83203125 368.7265625 C-73.85003291 350.86715852 -96.65917379 331.75402106 -114.15234375 309.33984375 C-115.90702324 307.11774435 -117.75610736 305.06848523 -119.6875 303 C-156.39561663 261.98615995 -181.19870206 206.85941653 -181.25 151.5625 C-181.25100708 150.80810638 -181.25201416 150.05371277 -181.25305176 149.27645874 C-181.2425318 137.61121714 -180.67250172 126.39909559 -178 115 C-177.77521973 114.00347412 -177.77521973 114.00347412 -177.54589844 112.98681641 C-173.5911003 95.8031765 -165.60172987 70.53672732 -152 58.18359375 C-150 57 -150 57 -146.75 57.375 C-141.50721214 56.85072121 -139.70888581 54.412202 -136.45703125 50.4453125 C-134.40086549 46.99448204 -135.06586886 44.80838079 -136 41 C-134.09589113 35.80954027 -131.01158385 32.91487876 -126.6875 29.6875 C-126.06794434 29.21530029 -125.44838867 28.74310059 -124.81005859 28.2565918 C-89.82275443 1.95197765 -43.33508745 -11.74670052 0 0 Z " fill="#E7AEE4" transform="translate(181,35)"/>
<path d="M0 0 C2.77801109 2.54656496 5.35472135 5.25740229 7.9375 8 C17.42708608 17.75736591 25.61598689 23.54060586 39.375 24.3125 C47.73579369 24.99572275 54.67432291 28.69828851 60.33984375 34.859375 C71.7156126 49.52742519 74.41801137 65.8942745 73 84 C70.81056044 95.28499706 64.66637767 107.31266918 56 115 C41.71738234 124.06498243 25.09790114 119.76440568 9.64453125 116.3125 C6.42467644 115.57374314 3.21466725 114.80852763 0.01171875 114 C-22.6974222 108.65062139 -46.01860886 112.54885585 -68.265625 118.1328125 C-79.31641467 120.69900006 -93.70243836 122.83992286 -103.86328125 116.6640625 C-114.24265832 108.58067195 -120.18318557 96.6955818 -123 84 C-123.4147949 80.19698574 -123.47799902 76.44817147 -123.4375 72.625 C-123.42920166 71.61203857 -123.42090332 70.59907715 -123.41235352 69.55541992 C-123.24379129 62.09609136 -122.39654566 55.73315227 -119 49 C-118.47921875 47.96617187 -117.9584375 46.93234375 -117.421875 45.8671875 C-112.40836964 36.675761 -106.17677171 28.59683937 -96 25 C-92.62485509 24.46108229 -89.28148579 24.0641559 -85.88305664 23.72827148 C-80.23667939 23.13773539 -75.84186867 21.93864942 -71 19 C-70.39800781 18.63648438 -69.79601562 18.27296875 -69.17578125 17.8984375 C-64.2417785 14.52635176 -60.22521416 10.24928803 -56.0625 6 C-39.69051562 -10.66012437 -19.56926622 -14.85002931 0 0 Z " fill="#FADED5" transform="translate(281,237)"/>
<path d="M0 0 C-2.82699691 1.43201239 -5.68029711 2.78450974 -8.5625 4.1015625 C-18.58975764 8.73415183 -28.15924837 13.3100581 -37 20 C-37.90492187 20.68449219 -38.80984375 21.36898437 -39.7421875 22.07421875 C-69.66594506 45.68262238 -88.42459855 79.87695611 -93.71112061 117.53890991 C-94.5356627 124.56354517 -94.49328502 131.62468592 -94.4375 138.6875 C-94.43445862 139.51183533 -94.43141724 140.33617065 -94.42828369 141.18548584 C-94.35446576 154.77881201 -93.3641411 167.7796523 -90 181 C-89.79632813 181.8245166 -89.59265625 182.6490332 -89.3828125 183.49853516 C-78.90748456 224.71280766 -55.6924239 261.25193508 -28 293 C-27.46431396 293.61818604 -26.92862793 294.23637207 -26.37670898 294.87329102 C-17.59964945 304.9675853 -8.62760737 315.01307419 1.48046875 323.796875 C3.9560551 325.96157376 6.360466 328.18599706 8.76098633 330.43286133 C14.96505243 336.23217694 21.3407759 341.72356561 28 347 C28.78213867 347.62358398 28.78213867 347.62358398 29.58007812 348.25976562 C59.33762393 371.97445679 90.92608072 393.16909358 124 412 C123 415 123 415 120.4375 416.6875 C115.27117027 418.66009862 111.39996039 418.96581402 106.28637695 416.90795898 C103.11482715 415.31679699 100.02513232 413.62350396 96.9375 411.875 C95.78773682 411.23755859 94.63797363 410.60011719 93.45336914 409.94335938 C89.95080906 407.99303421 86.47347871 406.00168277 83 404 C82.03578125 403.44473633 81.0715625 402.88947266 80.078125 402.31738281 C67.41856156 394.95222965 55.19363038 386.91675602 43 378.8125 C42.31316132 378.35681641 41.62632263 377.90113281 40.91867065 377.43164062 C22.58296673 365.24283173 4.89444971 352.12486779 -12 338 C-12.52142578 337.56494141 -13.04285156 337.12988281 -13.58007812 336.68164062 C-31.43893327 321.7324927 -49.5927689 305.80303838 -64.03515625 287.4609375 C-65.89787534 285.12790962 -67.84992448 282.94213407 -69.875 280.75 C-98.47730564 248.85615918 -117.39465487 208.61636541 -126 167 C-126.27070312 165.73542969 -126.54140625 164.47085938 -126.8203125 163.16796875 C-132.99580184 128.59392634 -125.05157019 91.17730981 -106.48046875 61.578125 C-103.5419852 56.76714733 -103.5419852 56.76714733 -103.1875 51.1875 C-103.455625 50.135625 -103.72375 49.08375 -104 48 C-104 43.21861363 -103.16772988 42.615713 -100 39.25 C-99.2575 38.45078125 -98.515 37.6515625 -97.75 36.828125 C-97.1725 36.22484375 -96.595 35.6215625 -96 35 C-95.01 35.33 -94.02 35.66 -93 36 C-88.82941123 36.4243757 -86.72080704 36.4788718 -83.18359375 34.12890625 C-82.27738281 33.28199219 -81.37117188 32.43507812 -80.4375 31.5625 C-71.749507 23.8205329 -62.17735701 17.93925865 -51.8125 12.6875 C-51.19600586 12.37409668 -50.57951172 12.06069336 -49.94433594 11.73779297 C-40.41970403 7.06537915 -30.7069954 4.25208936 -20.3125 2.25 C-19.23677734 2.02957031 -18.16105469 1.80914062 -17.05273438 1.58203125 C-11.25837195 0.43948091 -5.90434032 -0.25702086 0 0 Z " fill="#E693E2" transform="translate(143,47)"/>
<path d="M0 0 C0.76989258 0.19867676 1.53978516 0.39735352 2.33300781 0.60205078 C29.58532475 7.74414798 53.20764058 20.98110653 74 40 C77.70268468 38.4094101 80.35557345 36.08053228 83.375 33.4375 C89.83757702 27.91196642 96.76919549 23.44509623 104 19 C104.80566406 18.46761719 105.61132812 17.93523438 106.44140625 17.38671875 C117.82620784 10.04104676 130.92769994 5.37367722 143.875 1.625 C145.10246948 1.26728516 145.10246948 1.26728516 146.35473633 0.90234375 C158.56577288 -2.46588238 170.64836174 -3.37977973 183.25 -3.3125 C183.97810883 -3.31034485 184.70621765 -3.3081897 185.45639038 -3.30596924 C196.24689538 -3.25473888 206.52922707 -2.82588998 217 0 C217.78052734 0.19867676 218.56105469 0.39735352 219.36523438 0.60205078 C231.37076763 3.70092683 242.17180321 7.99234932 253 14 C254.05574219 14.56589844 255.11148437 15.13179687 256.19921875 15.71484375 C270.51803777 23.66974321 283.54300374 34.41077457 294 47 C294.68707031 47.78761719 295.37414062 48.57523438 296.08203125 49.38671875 C325.68070661 84.06537692 334.12656511 128.23109511 330.71582031 172.70556641 C326.02093263 215.82175345 305.17177287 256.98220126 279 291 C278.2874707 291.9288501 278.2874707 291.9288501 277.56054688 292.87646484 C274.42023576 296.95612205 271.2209912 300.9838266 268 305 C267.34 305.86367188 266.68 306.72734375 266 307.6171875 C263.21380498 311.11236964 261.65630528 312.76237222 257.375 314.3125 C254 314 254 314 251.0625 311.9375 C249 309 249 309 248.3125 306.1875 C249.33579887 301.44311433 251.92269146 298.68353255 255 295 C286.80682972 256.43499399 313.56136566 209.15516046 315 158 C315.04084717 156.78884521 315.04084717 156.78884521 315.08251953 155.55322266 C316.19940597 118.65382338 305.06764325 84.05750237 280.0625 56.5 C279.33160156 55.7265625 278.60070312 54.953125 277.84765625 54.15625 C276 52 276 52 274.99609375 49.84375 C273.70322088 47.45066767 272.44460345 47.12557281 270 46 C268.39244626 44.6959704 266.81200103 43.35826176 265.25 42 C244.10861567 24.55975988 216.59740706 13.16407495 189 13 C188.04996094 12.96261719 187.09992188 12.92523438 186.12109375 12.88671875 C170.25674179 12.46749387 154.93432493 14.7135133 140 20 C139.36255859 20.22171875 138.72511719 20.4434375 138.06835938 20.671875 C123.4651447 25.84541346 110.19366563 33.47606551 98 43 C97.14921875 43.65871094 96.2984375 44.31742188 95.421875 44.99609375 C92.04536994 47.65276108 88.73739527 50.2822686 85.65625 53.28125 C84.52703125 54.37953125 84.52703125 54.37953125 83.375 55.5 C82.72273437 56.1703125 82.07046875 56.840625 81.3984375 57.53125 C77.98225125 59.62324679 74.83947476 59.81486624 71 59 C68.12109375 56.98046875 68.12109375 56.98046875 65.4375 54.1875 C64.40559386 53.16722191 63.36756915 52.15310331 62.32421875 51.14453125 C61.78458496 50.62197754 61.24495117 50.09942383 60.68896484 49.56103516 C36.91847163 27.59102452 4.93435412 15.15172653 -27 13 C-27.73911621 12.9479541 -28.47823242 12.8959082 -29.23974609 12.84228516 C-61.96522893 10.86691825 -93.1250426 23.32877144 -118 44 C-118.51546387 44.45745605 -119.03092773 44.91491211 -119.56201172 45.38623047 C-122.4359383 47.90281461 -123.74121012 48.96430484 -127.625 49.5 C-131.14664639 48.97827461 -132.63849554 48.63398575 -135 46 C-136.30202284 42.78834365 -136.15756277 41.40564033 -134.8984375 38.1640625 C-132.69457715 34.49096192 -130.06573304 32.20892141 -126.6875 29.6875 C-126.06794434 29.21530029 -125.44838867 28.74310059 -124.81005859 28.2565918 C-89.82275443 1.95197765 -43.33508745 -11.74670052 0 0 Z " fill="#010101" transform="translate(181,35)"/>
<path d="M0 0 C2.4375 2 2.4375 2 4 5 C4.45903557 11.426498 1.80669533 15.2341996 -1.6328125 20.51977539 C-21.39828731 51.38586911 -25.49687382 91.69238068 -18 127 C-17.83371094 127.83160645 -17.66742187 128.66321289 -17.49609375 129.52001953 C-14.77000521 143.00658533 -10.60860098 155.44934753 -5 168 C-4.56268555 168.98548828 -4.12537109 169.97097656 -3.67480469 170.98632812 C3.00632108 185.87569412 10.64563782 199.63108432 20 213 C20.72960938 214.051875 21.45921875 215.10375 22.2109375 216.1875 C24.09393457 218.83138161 26.02690329 221.42273801 28 224 C28.40927734 224.53786133 28.81855469 225.07572266 29.24023438 225.62988281 C34.71546647 232.80363582 40.35833447 239.70152421 46.515625 246.3046875 C48.47889344 248.43464854 50.37936161 250.59158946 52.26953125 252.78515625 C56.14511501 257.22991089 60.25764375 261.40521723 64.4375 265.5625 C65.50581055 266.63661133 65.50581055 266.63661133 66.59570312 267.73242188 C70.67972924 271.80902923 74.86233378 275.70766198 79.23364258 279.47436523 C81.4082856 281.35264364 83.51425348 283.30043776 85.625 285.25 C91.25868616 290.33237742 97.20552018 294.96238954 103.203125 299.6015625 C104.93730239 300.9512049 106.65828904 302.31573564 108.375 303.6875 C138.22987014 327.51231197 170.9182297 347.96377582 204.25 366.5625 C205.21953613 367.11711914 206.18907227 367.67173828 207.18798828 368.24316406 C212.45077654 371.11850697 216.96663698 373.54270981 223 372 C226.82879297 370.44960047 230.35725708 368.48985919 233.9375 366.4375 C235.51349976 365.5556604 235.51349976 365.5556604 237.12133789 364.65600586 C240.4273986 362.79276852 243.71533545 360.90066564 247 359 C247.99773437 358.42797852 248.99546875 357.85595703 250.0234375 357.26660156 C275.64004317 342.51327131 300.57009529 326.03117321 324 308 C324.63341309 307.5153125 325.26682617 307.030625 325.91943359 306.53125 C338.06769475 297.21030112 349.68134569 287.30969809 361 277 C363.57635091 274.6648231 366.1554855 272.33404566 368.75390625 270.0234375 C370.10209617 268.80889424 371.43027369 267.57070643 372.71484375 266.2890625 C375.52129173 263.5942769 376.71936451 263 380.6875 263 C385.2519685 264.37795276 385.2519685 264.37795276 387 267 C388.06228926 269.45143676 388.0954273 270.6478425 387.39453125 273.234375 C385.50417189 276.98332298 382.87866793 279.48378466 379.875 282.375 C379.28388428 282.9537085 378.69276855 283.53241699 378.08374023 284.12866211 C373.85138086 288.24627314 369.51313465 292.19229314 365 296 C363.96380366 296.89854156 362.92875299 297.79840513 361.89453125 298.69921875 C336.20291029 321.01744982 308.29790878 341.47557457 279.01416016 358.8046875 C277.09943449 359.94099015 275.19462251 361.0919841 273.29296875 362.25 C226.94514284 390.42441815 226.94514284 390.42441815 215 389 C206.47983114 386.63488115 198.89763401 382.46426887 191.25 378.125 C190.06812158 377.46053729 188.88615384 376.79623345 187.70410156 376.13208008 C171.06271723 366.74223689 154.75977367 356.80755799 139 346 C137.67457966 345.09750864 136.34905543 344.19516985 135.0234375 343.29296875 C121.33461279 333.95245532 107.92132351 324.38257577 95 314 C94.06542969 313.24976563 93.13085938 312.49953125 92.16796875 311.7265625 C70.14996709 293.86715852 47.34082621 274.75402106 29.84765625 252.33984375 C28.09297676 250.11774435 26.24389264 248.06848523 24.3125 246 C-12.39561663 204.98615995 -37.19870206 149.85941653 -37.25 94.5625 C-37.25100708 93.80810638 -37.25201416 93.05371277 -37.25305176 92.27645874 C-37.2425318 80.61121714 -36.67250172 69.39909559 -34 58 C-33.77521973 57.00347412 -33.77521973 57.00347412 -33.54589844 55.98681641 C-29.65488535 39.08032324 -21.65760674 13.18910977 -7.984375 1.23828125 C-5.11383191 -0.55298284 -3.31266379 -0.55211063 0 0 Z " fill="#010101" transform="translate(37,92)"/>
<path d="M0 0 C4.75053389 3.86671363 8.99225879 8.23182335 13.19067383 12.68652344 C20.26026466 20.09895247 26.0214372 23.88074504 36.2734375 24.8984375 C50.49786939 26.79062798 59.75771413 32.35632441 69.0234375 43.4609375 C81.52790474 60.25447968 84.97421226 80.01480411 82.6796875 100.53515625 C82.23588895 102.89098689 81.68846991 105.15857844 81.0234375 107.4609375 C80.84039062 108.15574219 80.65734375 108.85054688 80.46875 109.56640625 C76.28300594 123.7514278 68.6840555 136.85178186 56.0234375 144.9609375 C54.37912962 145.83756389 52.71248847 146.67396288 51.0234375 147.4609375 C49.94255859 147.96753906 49.94255859 147.96753906 48.83984375 148.484375 C32.24847174 154.75286564 12.49383929 149.09654846 -4.01171875 145.3046875 C-12.7206924 143.35493003 -21.03090228 142.10202682 -29.9765625 142.0859375 C-31.21212891 142.08352051 -31.21212891 142.08352051 -32.47265625 142.08105469 C-44.28551585 142.29368616 -55.83041028 145.20991092 -67.328125 147.69335938 C-84.74688503 151.39876398 -101.78621896 153.38482417 -117.6015625 143.8359375 C-130.58132237 134.48865945 -139.84852728 118.40636117 -142.6953125 102.64794922 C-145.35952606 81.93091357 -142.34578532 61.722588 -129.6015625 44.7109375 C-128.41234986 43.2781824 -127.20398921 41.86109377 -125.9765625 40.4609375 C-125.38230469 39.76097656 -124.78804687 39.06101562 -124.17578125 38.33984375 C-116.1667154 29.56800972 -107.14462333 26.2549066 -95.63232422 25.1315918 C-84.06040359 23.95428923 -77.35389502 17.11403066 -69.5390625 8.8984375 C-50.99815434 -10.59328646 -22.98229517 -15.43385805 0 0 Z M-62.8515625 23.4609375 C-72.39787109 33.31338941 -81.51211727 39.07129927 -95.3515625 39.7109375 C-103.61289426 40.3965252 -109.4968392 44.6193381 -115.1640625 50.4609375 C-127.26250248 64.93980076 -129.31007079 81.26855061 -127.9765625 99.4609375 C-127.18344334 103.82759926 -125.93196672 107.48959023 -123.9765625 111.4609375 C-123.52925781 112.4096875 -123.08195312 113.3584375 -122.62109375 114.3359375 C-118.25991736 122.94136866 -113.06168976 130.59516676 -104.00390625 134.61328125 C-90.67505035 138.3453609 -76.10047315 134.34257255 -62.9765625 131.4609375 C-61.58862696 131.16106329 -60.2006131 130.86155123 -58.8125 130.5625 C-56.56673737 130.07679973 -54.32277411 129.58257486 -52.08203125 129.07421875 C-31.16768528 124.94396426 -11.52599702 127.7791251 8.92797852 132.61499023 C28.34896772 137.17496753 28.34896772 137.17496753 47.18359375 132.6953125 C47.79074219 132.28796875 48.39789063 131.880625 49.0234375 131.4609375 C49.62027344 131.09484375 50.21710938 130.72875 50.83203125 130.3515625 C59.67792629 123.96833312 66.10651983 109.92562013 68.0234375 99.4609375 C69.59849966 82.65521407 67.11320749 66.55725037 56.984375 52.6640625 C49.16393684 43.32375121 41.79564175 40.43123533 29.92114258 39.25219727 C16.27733587 37.76422261 8.14242796 28.73439011 -0.9765625 19.2734375 C-9.6830986 10.49866835 -18.18173495 6.50320338 -30.4140625 6.1484375 C-44.44553751 6.42356446 -53.55149555 13.52614098 -62.8515625 23.4609375 Z " fill="#030203" transform="translate(285.9765625,221.5390625)"/>
<path d="M0 0 C9.86107452 6.13610054 16.09832507 15.1620141 20 26 C22.49006257 36.70726906 21.25268426 46.304684 16 56 C12.12238507 61.07991442 7.95426421 64.5897709 2 67 C-0.85467507 67.33849902 -3.40361284 67.52417584 -6.25 67.5 C-7.37390137 67.49468262 -7.37390137 67.49468262 -8.52050781 67.48925781 C-17.33058287 67.2266681 -23.41928957 63.69226287 -30 58 C-40.49754533 45.58670151 -44.18238197 34.13106836 -43 18 C-41.15980009 10.33989073 -36.09739648 3.8807634 -29.7109375 -0.609375 C-19.81583392 -6.20089385 -9.91414625 -5.06467963 0 0 Z " fill="#040303" transform="translate(166,179)"/>
<path d="M0 0 C6.26720063 4.83096715 10.9894451 10.62719999 12.6875 18.5 C13.81460108 32.25063313 11.7222551 41.77041283 4 53.3125 C3.401875 54.22 2.80375 55.1275 2.1875 56.0625 C-1.10956566 59.45376754 -4.94167901 61.90902834 -9 64.3125 C-9.91265625 64.85648437 -10.8253125 65.40046875 -11.765625 65.9609375 C-15.7742052 67.63602053 -19.07350684 67.85054106 -23.375 67.8125 C-24.13087402 67.80605469 -24.88674805 67.79960937 -25.66552734 67.79296875 C-31.63003034 67.59677649 -35.6453124 66.5838443 -40 62.3125 C-40.93199219 61.45785156 -40.93199219 61.45785156 -41.8828125 60.5859375 C-48.31491273 54.04618706 -51.15669872 46.36434156 -51.4375 37.25 C-51.03489749 27.18493715 -47.53943519 19.59937623 -42 11.3125 C-41.4225 10.425625 -40.845 9.53875 -40.25 8.625 C-29.24046421 -2.69035623 -14.52266992 -8.16900183 0 0 Z " fill="#040303" transform="translate(376,178.6875)"/>
<path d="M0 0 C6.86673331 6.31629377 11.57779753 16.62675434 12.078125 25.8828125 C12.32278844 39.31006533 10.450156 49.2654088 1.875 60.125 C-5.32304558 66.96792379 -11.85071992 68.60801175 -21.6796875 68.43359375 C-28.88679693 67.78805901 -33.67218258 64.37637773 -38.52734375 59.15625 C-45.39936589 50.41920474 -48.68034232 38.97888886 -48 27.9375 C-46.40370151 15.16711208 -41.92903582 5.92240392 -32.0546875 -2.46484375 C-21.63387018 -10.08005641 -9.63025748 -7.35774024 0 0 Z " fill="#040303" transform="translate(236.125,144.875)"/>
<path d="M0 0 C9.41852227 6.79991967 14.88660786 14.55690983 17 26 C18.35166409 38.58823921 17.43737829 50.25936088 9.98046875 60.875 C4.41670636 67.57879777 -0.66018263 71.29805218 -9.328125 72.4375 C-17.78924186 72.87703854 -23.45096483 71.4095281 -30 66 C-37.8822988 58.47598751 -42.01263478 47.87643019 -42.29272461 37.125 C-42.40669223 24.51821187 -40.09184117 14.29429108 -31 5 C-21.74544172 -3.18131103 -11.43124128 -6.03155947 0 0 Z " fill="#040303" transform="translate(306,141)"/>
<path d="M0 0 C6.73894621 3.16317883 13.05667031 10.06043111 16 16.9375 C17.79805427 22.78701421 17.8392321 28.61481404 15.8125 34.375 C13.68424521 37.45730005 12.30271302 39.17296727 9 41 C4.1009406 41.80285589 0.2422581 41.59723947 -4.25 39.4375 C-11.29624911 33.19196102 -16.10666699 26.70911321 -17.3828125 17.125 C-17.67274952 10.01187837 -16.07973621 6.42192912 -11.3125 1.125 C-7.58381884 -0.688953 -4.05811251 -0.61120434 0 0 Z " fill="#F7DBD2" transform="translate(155,190)"/>
<path d="M0 0 C3.85112928 2.06865331 6.37478197 4.95533973 8 9 C9.18713304 17.64122421 7.38754604 25.17705309 2.38671875 32.296875 C-1.43696462 36.94294703 -5.01322935 40.36672235 -11.1640625 41.34375 C-15.27068924 41.61844075 -18.12795876 41.37759675 -21.4375 38.8125 C-25.83457271 33.98644458 -26.469798 30.00846199 -26.30859375 23.6171875 C-25.19861215 14.20341947 -19.0159492 7.49212974 -12.125 1.5 C-7.95777787 -0.50026662 -4.5384312 -0.9499042 0 0 Z " fill="#F8DBD2" transform="translate(366,190)"/>
<path d="M0 0 C5.55337113 3.49391062 9.15617382 7.62934417 11 14 C11.44255192 16.9713708 11.52437193 19.87377089 11.5 22.875 C11.49572998 23.6685791 11.49145996 24.4621582 11.48706055 25.27978516 C11.25828176 33.14880535 8.88261749 37.71701896 3.75 43.5625 C-0.21170511 45.63339131 -3.62307722 45.76536355 -8 45 C-13.78819818 41.91296097 -16.0091949 35.97241529 -18 30 C-18.87092314 19.73554867 -18.35910706 11.4780415 -11.578125 3.28125 C-7.92055724 -0.2583317 -4.89889695 -1.01356489 0 0 Z " fill="#F8DBD2" transform="translate(297,153)"/>
<path d="M0 0 C5.53821575 2.71259547 8.25072779 6.66575472 11 12 C13.30808452 18.92425357 13.14453466 28.36465921 10.3125 35.125 C8.39529562 38.753994 6.0933001 41.32471342 3 44 C2.67 44.33 2.34 44.66 2 45 C-2.80444856 45.708024 -6.11163586 45.5363708 -10.3125 43 C-15.27805539 38.10030985 -17.49947181 32.18622718 -17.546875 25.2890625 C-17.53140625 24.53367188 -17.5159375 23.77828125 -17.5 23 C-17.51546875 22.24460938 -17.5309375 21.48921875 -17.546875 20.7109375 C-17.5012948 14.07901864 -15.48125926 9.03642685 -11.2890625 3.90625 C-7.53861295 0.73685601 -5.109037 -1.08702915 0 0 Z " fill="#F8DBD2" transform="translate(221,153)"/>
</svg>
